<?xml version="1.0" encoding="UTF-8"?>
<svg width="24px" height="24px" viewBox="0 0 24 24" version="1.1" xmlns="http://www.w3.org/2000/svg" xmlns:xlink="http://www.w3.org/1999/xlink">
    <title>LeetCode Logo</title>
    <g stroke="none" stroke-width="1" fill="none" fill-rule="evenodd">
        <path d="M16.102,17.93 L18.063,19.892 C18.16,19.988 18.16,20.142 18.063,20.239 L16.102,22.199 C16.005,22.296 15.851,22.296 15.754,22.199 L13.793,20.239 C13.696,20.142 13.696,19.988 13.793,19.892 L15.754,17.93 C15.851,17.833 16.005,17.833 16.102,17.93 Z" fill="#8892b0" fill-rule="nonzero"></path>
        <path d="M13.101,10.889 L19.521,4.469 C19.618,4.372 19.772,4.372 19.869,4.469 L21.829,6.429 C21.926,6.526 21.926,6.68 21.829,6.777 L15.409,13.197 C15.312,13.294 15.158,13.294 15.061,13.197 L13.101,11.237 C13.004,11.14 13.004,10.986 13.101,10.889 Z" fill="#8892b0" fill-rule="nonzero"></path>
        <path d="M9.18,14.811 L11.141,16.771 C11.238,16.868 11.238,17.022 11.141,17.119 L9.18,19.08 C9.083,19.177 8.929,19.177 8.832,19.08 L6.872,17.119 C6.775,17.022 6.775,16.868 6.872,16.771 L8.832,14.811 C8.929,14.714 9.083,14.714 9.18,14.811 Z" fill="#8892b0" fill-rule="nonzero"></path>
        <path d="M10.46,13.531 L12.42,15.491 C12.517,15.588 12.517,15.742 12.42,15.839 L10.46,17.799 C10.363,17.896 10.209,17.896 10.112,17.799 L8.151,15.839 C8.054,15.742 8.054,15.588 8.151,15.491 L10.112,13.531 C10.209,13.434 10.363,13.434 10.46,13.531 Z" fill="#8892b0" fill-rule="nonzero"></path>
        <path d="M11.739,12.25 L13.7,14.211 C13.797,14.308 13.797,14.462 13.7,14.559 L11.739,16.519 C11.642,16.616 11.488,16.616 11.391,16.519 L9.431,14.559 C9.334,14.462 9.334,14.308 9.431,14.211 L11.391,12.25 C11.488,12.153 11.642,12.153 11.739,12.25 Z" fill="#8892b0" fill-rule="nonzero"></path>
        <path d="M9.181,9.69 L11.141,11.65 C11.238,11.747 11.238,11.901 11.141,11.998 L9.181,13.958 C9.084,14.055 8.93,14.055 8.833,13.958 L6.872,11.998 C6.775,11.901 6.775,11.747 6.872,11.65 L8.833,9.69 C8.93,9.593 9.084,9.593 9.181,9.69 Z" fill="#8892b0" fill-rule="nonzero"></path>
        <path d="M6.62,7.13 L8.581,9.09 C8.678,9.187 8.678,9.341 8.581,9.438 L6.62,11.398 C6.523,11.495 6.369,11.495 6.272,11.398 L4.312,9.438 C4.215,9.341 4.215,9.187 4.312,9.09 L6.272,7.13 C6.369,7.033 6.523,7.033 6.62,7.13 Z" fill="#8892b0" fill-rule="nonzero"></path>
        <path d="M14.299,7.13 L16.26,9.09 C16.357,9.187 16.357,9.341 16.26,9.438 L14.299,11.398 C14.202,11.495 14.048,11.495 13.951,11.398 L11.991,9.438 C11.894,9.341 11.894,9.187 11.991,9.09 L13.951,7.13 C14.048,7.033 14.202,7.033 14.299,7.13 Z" fill="#8892b0" fill-rule="nonzero"></path>
        <path d="M4.061,4.57 L6.021,6.53 C6.118,6.627 6.118,6.781 6.021,6.878 L4.061,8.838 C3.964,8.935 3.81,8.935 3.713,8.838 L1.752,6.878 C1.655,6.781 1.655,6.627 1.752,6.53 L3.713,4.57 C3.81,4.473 3.964,4.473 4.061,4.57 Z" fill="#8892b0" fill-rule="nonzero"></path>
        <path d="M11.739,2.01 L13.7,3.97 C13.797,4.067 13.797,4.221 13.7,4.318 L11.739,6.278 C11.642,6.375 11.488,6.375 11.391,6.278 L9.431,4.318 C9.334,4.221 9.334,4.067 9.431,3.97 L11.391,2.01 C11.488,1.913 11.642,1.913 11.739,2.01 Z" fill="#8892b0" fill-rule="nonzero"></path>
    </g>
</svg>
